<svg width="61" height="38" viewBox="0 0 61 38" fill="none" xmlns="http://www.w3.org/2000/svg">
<path d="M22.3063 19.4978H19.2044C17.8831 19.4978 16.8108 20.5701 16.8108 21.8913C16.8108 23.2125 17.8831 24.2848 19.2044 24.2848H23.1791C23.8481 24.2848 24.4323 24.7252 24.6652 25.3524C25.4151 27.371 26.5091 29.2231 27.8752 30.8366C28.5757 31.6632 27.9981 32.9301 26.9146 32.9301H23.7057C22.5601 32.9301 21.5723 33.811 21.5181 34.9567C21.4606 36.1789 22.4356 37.189 23.6451 37.189H39.388C40.2241 37.3055 41.0762 37.3661 41.9443 37.3661C52.2013 37.3661 60.5035 28.9841 60.3711 18.6936C60.2418 8.74455 52.1199 0.630564 42.1709 0.509293C40.7762 0.491741 39.4167 0.630564 38.1083 0.908211C34.9808 1.57201 31.7878 1.87838 28.5917 1.87838H13.3339C12.0446 1.87838 10.934 2.86929 10.8734 4.15859C10.8079 5.53406 11.9042 6.67018 13.2653 6.67018H23.0707C25.0956 6.67018 26.4168 8.80679 25.5009 10.6115C25.4897 10.6322 25.4801 10.653 25.469 10.6737C25.0094 11.5912 24.068 12.1689 23.0404 12.1689H10.4936C9.20428 12.1689 8.09369 13.1598 8.03306 14.4491C7.96763 15.8245 9.06386 16.9607 10.425 16.9607H22.3047C23.0244 16.9607 23.5988 17.5574 23.5717 18.2771C23.5462 18.9584 22.9861 19.4962 22.3047 19.4962L22.3063 19.4978ZM36.7759 7.88768C36.9418 5.31067 39.0354 3.22034 41.6124 3.05918C44.7383 2.8645 47.3121 5.43992 47.1143 8.56584C46.9515 11.1444 44.8596 13.2364 42.2794 13.3991C39.1487 13.597 36.5716 11.0152 36.7743 7.88608L36.7759 7.88768ZM26.412 16.1405C26.2189 13.0146 28.7943 10.4424 31.9203 10.6402C34.5005 10.803 36.5924 12.8965 36.7536 15.4767C36.9498 18.6074 34.3664 21.1828 31.2373 20.9802C28.6603 20.8126 26.5716 18.7191 26.4104 16.1421L26.412 16.1405ZM40.4427 28.041C40.28 30.6196 38.1881 32.7115 35.6095 32.8743C32.4787 33.0722 29.8985 30.4904 30.1012 27.3613C30.2687 24.7827 32.3623 22.6939 34.9409 22.5328C38.0668 22.3381 40.639 24.9151 40.4427 28.041ZM42.2427 20.6339C41.0667 20.8302 40.0614 19.8297 40.2513 18.6537C40.3662 17.942 40.9374 17.366 41.6491 17.2463C42.8251 17.05 43.8335 18.0489 43.6437 19.2265C43.5288 19.9398 42.9559 20.5158 42.2427 20.6355V20.6339ZM53.7921 28.0378C53.631 30.6164 51.5406 32.7099 48.962 32.8743C45.8313 33.0754 43.2511 30.4936 43.4522 27.3644C43.6165 24.7874 45.7069 22.6955 48.2839 22.5328C51.4082 22.3349 53.9868 24.9119 53.7921 28.0378ZM52.3098 20.9913C49.4471 20.9913 47.127 18.6712 47.127 15.8118C47.127 12.9523 49.6498 10.4328 52.68 10.6434C55.2362 10.8205 57.3058 12.8933 57.4797 15.4496C57.6856 18.4766 55.2905 20.9929 52.3114 20.9929L52.3098 20.9913Z" fill="#9534D2"/>
<rect x="13.0825" y="33.0088" width="6.42883" height="4.28589" rx="2.14294" fill="#9534D2"/>
<rect x="0.40332" y="1.93652" width="8.03604" height="4.64304" rx="2.27732" fill="#9534D2"/>
</svg>
